# xmcd
#
# Track frame offsets: 
#        150
#        15782
#        32975
#        48569
#        62661
#        81043
#        98004
#        117936
#        131971
#        149016
#        164173
#        185757
#        205708
#        210635
#        228663
#        243019
#        265876
#
# Disc length: 3814 seconds
#
# Revision: 0
# Processed by: cddbd v1.5.2PL0 Copyright (c) Steve Scherf et al.
# Submitted via: ExactAudioCopy v0.95b4
#
DISCID=f60ee411
DTITLE=Che'Nelle - Things Happen For A Reason
DYEAR=2007
DGENRE=R&B
TTITLE0=I Fell In Love With The DJ
TTITLE1=Club Jumpin'
TTITLE2=Teach Me How To Dance
TTITLE3=Hurry Up
TTITLE4=Right Back
TTITLE5=Mantaker
TTITLE6=When We Will Meet Again
TTITLE7=Lookin'
TTITLE8=Stick With Me
TTITLE9=Summer Jam
TTITLE10=My Pledge
TTITLE11=2nd Nature
TTITLE12=I Can't Make You Love Me -Interlude-
TTITLE13=I Fell In Love With The DJ (Remix) Featuring Cham
TTITLE14=I Guess
TTITLE15=Certain Things
TTITLE16=Outro
EXTD=
EXTT0=
EXTT1=
EXTT2=
EXTT3=
EXTT4=
EXTT5=
EXTT6=
EXTT7=
EXTT8=
EXTT9=
EXTT10=
EXTT11=
EXTT12=
EXTT13=
EXTT14=
EXTT15=
EXTT16=
PLAYORDER=
